<?xml version="1.0" standalone="no"?>
<!DOCTYPE svg PUBLIC "-//W3C//DTD SVG 20010904//EN"
 "http://www.w3.org/TR/2001/REC-SVG-20010904/DTD/svg10.dtd">
<svg version="1.0" xmlns="http://www.w3.org/2000/svg"
 width="280.000000pt" height="265.000000pt" viewBox="0 0 280.000000 265.000000"
 preserveAspectRatio="xMidYMid meet">

<g transform="translate(0.000000,265.000000) scale(0.100000,-0.100000)"
fill="#000000" stroke="none">
<path d="M1275 2533 c-537 -67 -950 -445 -1062 -973 -24 -117 -24 -353 0 -470
109 -514 506 -890 1019 -966 388 -57 778 78 1053 367 445 466 445 1202 0 1668
-190 200 -431 326 -698 365 -96 15 -237 19 -312 9z m110 -79 c0 -15 -8 -20
-37 -22 -35 -3 -38 -6 -38 -33 0 -27 2 -29 40 -29 36 0 40 -2 40 -25 0 -24 -3
-25 -60 -25 -69 0 -67 -2 -72 87 l-4 62 55 4 c74 4 76 4 76 -19z m71 18 c7 -4
14 -16 17 -27 4 -18 5 -18 6 3 1 17 7 22 26 22 23 0 25 -3 25 -48 0 -27 -3
-84 -7 -126 -5 -71 -8 -77 -27 -74 -20 3 -21 8 -19 88 2 58 0 79 -6 65 -5 -11
-10 -51 -10 -88 -1 -64 -2 -68 -23 -65 -21 3 -22 6 -19 123 3 138 6 148 37
127z m-281 -52 c-3 -6 -13 -10 -21 -10 -26 0 -14 -18 16 -25 34 -8 38 -20 11
-35 -14 -7 -31 -6 -61 5 -24 8 -48 15 -54 15 -6 0 -23 -21 -38 -45 -18 -30
-34 -45 -48 -45 -24 0 -25 13 -3 47 l17 25 -33 -7 c-30 -6 -32 -5 -29 16 3 20
19 28 118 60 96 31 116 35 123 23 4 -8 5 -19 2 -24z m467 29 c15 -8 22 -8 28
1 10 16 50 3 50 -15 0 -8 9 -17 20 -20 11 -3 20 -12 20 -18 -1 -24 -56 -91
-80 -97 -22 -6 -19 -9 30 -27 30 -11 66 -24 78 -28 19 -5 22 -12 18 -31 -14
-55 -26 -74 -47 -74 -19 0 -20 4 -14 38 l6 37 -92 31 c-93 30 -105 38 -91 62
7 10 15 10 35 3 27 -10 27 -10 12 13 -13 20 -15 60 -6 129 1 10 9 9 33 -4z
m218 -85 c16 -40 12 -64 -9 -64 -10 0 -21 -9 -24 -20 -5 -21 -31 -27 -42 -10
-3 5 2 35 11 65 20 62 47 74 64 29z m-970 -75 c34 -50 34 -51 15 -65 -17 -13
-21 -12 -35 6 -12 16 -18 18 -28 8 -20 -20 -40 7 -24 33 7 11 10 24 6 30 -6
10 13 39 25 39 3 0 22 -23 41 -51z m1260 -103 c-1 -15 -68 -106 -79 -106 -5 0
-13 6 -19 13 -9 10 -5 22 13 50 14 20 25 38 25 40 0 2 -36 28 -80 58 -80 54
-89 66 -69 86 8 8 38 -9 110 -59 54 -39 99 -75 99 -82z m-925 109 c0 -11 -15
-23 -45 -35 -34 -14 -44 -22 -41 -36 8 -40 5 -49 -15 -52 -16 -2 -23 4 -28 24
-6 22 -11 25 -34 20 -85 -19 -92 -19 -92 0 0 15 24 28 118 61 64 23 122 40
127 39 6 -2 10 -11 10 -21z m-434 -58 c-9 -12 -7 -16 10 -20 31 -8 21 -43 -11
-39 -55 8 -55 8 -52 -24 2 -22 -2 -33 -13 -38 -22 -8 -35 1 -35 25 0 12 -7 19
-19 19 -30 0 -37 22 -13 38 12 8 22 23 22 33 0 17 36 37 47 25 3 -3 15 1 26 9
19 13 23 13 36 0 11 -11 12 -17 2 -28z m1145 -51 c3 -8 0 -24 -6 -36 -10 -18
-9 -25 5 -39 15 -15 18 -14 37 12 19 26 21 27 39 11 17 -15 17 -18 2 -41 -16
-24 -15 -25 13 -48 26 -21 27 -25 14 -39 -13 -13 -27 -6 -119 59 -125 90 -117
81 -101 100 9 11 17 12 33 3 18 -9 23 -7 35 11 17 24 40 28 48 7z m-994 -13
c36 -32 16 -105 -32 -114 -56 -11 -104 45 -79 93 6 12 17 26 23 30 20 13 69 8
88 -9z m636 -29 c319 -66 580 -327 646 -646 44 -213 0 -449 -116 -629 -53 -80
-169 -197 -248 -248 -220 -142 -525 -172 -765 -75 -208 85 -389 267 -470 474
-74 188 -73 432 1 615 84 206 263 385 470 469 135 55 331 71 482 40z m-916
-139 c10 -22 9 -29 -10 -47 -18 -19 -25 -20 -47 -10 -44 20 -28 82 22 82 15 0
27 -9 35 -25z m1566 3 c27 -27 7 -78 -29 -78 -21 0 -49 26 -49 45 0 35 53 58
78 33z m-1734 -123 c25 -14 50 -23 60 -19 10 4 18 -1 23 -12 4 -11 16 -26 27
-35 18 -14 18 -19 7 -33 -10 -12 -17 -14 -25 -6 -18 18 -34 11 -55 -26 -12
-19 -27 -34 -33 -32 -13 5 -67 141 -67 171 -1 23 13 22 63 -8z m1875 -6 c24
-11 41 -22 39 -24 -10 -10 -181 -105 -189 -105 -8 0 -11 5 -13 30 -1 6 25 25
57 44 50 28 56 34 43 45 -17 14 -13 31 8 31 7 0 32 -9 55 -21z m73 -96 c41
-47 27 -97 -34 -129 -60 -31 -171 -3 -155 40 5 14 10 14 41 1 l34 -14 -5 38
c-4 31 -1 43 16 60 26 26 82 28 103 4z m-1982 -94 l48 -52 7 31 c8 37 16 44
35 32 12 -7 11 -18 -6 -71 -11 -34 -24 -64 -30 -66 -6 -2 -30 24 -54 57 -44
61 -76 82 -90 60 -4 -7 -5 -21 -3 -31 6 -23 -25 -38 -38 -18 -14 21 -2 72 22
92 35 28 59 21 109 -34z m1984 -111 c42 -24 76 -48 76 -54 0 -6 -26 -17 -57
-24 -32 -7 -63 -19 -69 -28 -7 -10 -16 -12 -25 -6 -8 5 -25 9 -39 9 -34 0 -36
38 -2 43 21 3 22 7 16 53 -8 62 -1 63 100 7z m-2028 -7 c63 -29 109 -119 69
-135 -10 -4 -20 6 -31 32 l-15 37 -15 -27 c-35 -66 -134 -38 -134 37 0 24 7
39 26 54 33 26 47 26 100 2z m2119 -158 c4 -32 9 -66 12 -77 6 -22 2 -22 -132
18 -97 29 -111 37 -102 60 6 15 10 15 168 -31 14 -4 16 2 12 41 -5 41 -4 46
15 46 18 0 21 -8 27 -57z m-2097 -9 c43 -6 52 -10 52 -26 0 -18 -6 -19 -70
-16 -65 3 -70 1 -68 -16 3 -21 -11 -30 -27 -18 -12 8 -55 69 -55 77 0 7 103 6
168 -1z m1954 -225 c31 -21 75 -41 98 -45 41 -7 61 -27 44 -44 -5 -5 -26 -5
-49 0 -29 7 -62 5 -118 -6 -43 -9 -80 -14 -82 -12 -1 2 1 13 6 26 5 14 17 22
31 22 45 0 52 16 19 39 -20 15 -31 31 -31 47 0 28 -3 29 82 -27z m-1901 1 c36
-35 36 -73 2 -78 -19 -3 -23 1 -23 21 0 47 -69 58 -127 21 -24 -15 -31 -58
-12 -70 14 -8 -8 -24 -33 -24 -27 0 -34 61 -12 99 23 40 67 60 127 61 41 0 53
-5 78 -30z m39 -119 c0 -13 -11 -24 -35 -32 -36 -13 -41 -23 -26 -48 8 -12 16
-13 47 -3 41 12 57 8 52 -15 -3 -15 -178 -93 -210 -93 -11 0 -18 7 -18 19 0
14 13 24 44 36 35 13 43 21 39 36 -8 29 -18 31 -60 14 -40 -17 -63 -14 -63 9
0 9 38 29 103 55 117 46 127 48 127 22z m1784 -49 c-5 -26 -2 -28 80 -60 53
-21 86 -39 86 -48 0 -27 -26 -25 -104 6 -91 36 -93 36 -101 10 -7 -23 -33 -27
-41 -5 -4 8 2 34 11 58 9 23 21 52 26 65 7 19 12 21 29 12 14 -8 18 -17 14
-38z m-1699 -139 c26 -44 27 -47 10 -59 -21 -15 -40 -5 -50 27 -7 20 -30 26
-40 9 -3 -5 -1 -18 4 -29 8 -14 7 -22 -5 -32 -14 -11 -19 -10 -35 9 -15 19
-22 21 -39 12 -24 -13 -24 -14 -4 -45 13 -20 14 -28 4 -40 -19 -23 -28 -19
-60 33 -23 36 -26 50 -17 58 21 20 191 113 198 108 4 -2 19 -25 34 -51z m1700
-32 c107 -60 114 -67 95 -85 -13 -12 -28 -7 -107 38 -51 29 -95 55 -99 59 -8
8 3 37 14 37 5 0 48 -22 97 -49z m-111 -37 c4 -10 -1 -22 -10 -29 -31 -22 -7
-35 54 -29 49 5 60 3 80 -15 31 -30 29 -74 -4 -100 -21 -16 -30 -18 -40 -10
-19 15 -18 29 3 44 24 18 9 49 -20 41 -67 -20 -85 -19 -111 7 -14 15 -26 36
-26 48 0 45 60 80 74 43z m-1511 -42 c10 -9 17 -29 17 -50 0 -29 -8 -43 -45
-78 -65 -63 -131 -72 -168 -23 -17 23 -18 32 -8 61 15 44 58 86 107 103 42 15
69 11 97 -13z m1437 -67 c17 -9 33 -28 40 -50 10 -30 18 -37 56 -46 51 -13 62
-25 42 -45 -12 -13 -20 -12 -57 1 -64 22 -69 19 -31 -20 32 -33 33 -36 17 -52
-15 -15 -22 -11 -104 70 l-88 87 37 35 c43 40 48 41 88 20z m-1371 -79 c-6
-32 -8 -60 -6 -63 3 -2 17 12 32 31 29 38 52 46 61 21 7 -16 -139 -185 -158
-185 -10 0 -7 49 7 117 6 26 3 25 -34 -17 -37 -41 -42 -43 -57 -28 -15 14 -13
19 22 59 79 91 128 139 136 131 4 -4 3 -34 -3 -66z m1250 -13 c7 -14 3 -23
-20 -43 -22 -19 -27 -29 -19 -40 7 -12 12 -12 22 -2 17 17 45 15 52 -4 4 -11
-1 -22 -14 -31 -16 -12 -18 -17 -7 -33 14 -24 30 -25 47 -5 17 20 46 19 54 -1
4 -9 5 -18 4 -19 -2 0 -22 -16 -44 -33 -23 -18 -44 -32 -47 -32 -8 0 -137 179
-137 189 0 12 72 70 87 71 7 0 16 -8 22 -17z m-1070 -58 c34 -17 46 -42 30
-61 -16 -19 -28 -17 -48 7 -23 28 -56 18 -82 -24 -23 -38 -24 -70 -4 -87 19
-16 38 -3 32 22 -12 46 15 61 52 31 l21 -18 -31 -47 c-34 -52 -51 -58 -99 -33
-57 29 -47 127 19 188 42 40 67 45 110 22z m951 -12 c0 -5 9 -60 20 -123 11
-63 20 -116 20 -117 0 -2 -8 -3 -17 -3 -15 1 -162 155 -171 180 -2 4 6 11 17
15 14 4 30 -6 64 -42 l46 -48 -13 62 c-9 44 -10 65 -3 72 13 13 37 15 37 4z
m-801 -62 c12 -8 8 -24 -19 -92 -19 -45 -42 -91 -52 -101 -25 -25 -73 -23 -92
4 -32 45 -8 90 26 49 10 -13 24 -21 31 -18 6 2 28 41 46 86 19 44 37 81 40 81
3 0 12 -4 20 -9z m71 -26 c0 -2 -9 -43 -21 -91 -15 -63 -17 -90 -9 -98 22 -22
45 10 64 93 15 65 22 81 37 81 10 0 20 -3 22 -7 9 -15 -39 -182 -57 -202 -23
-25 -63 -27 -94 -5 -24 17 -29 62 -13 124 6 19 15 54 20 77 9 34 15 40 31 36
11 -3 20 -7 20 -8z m589 -86 c18 -55 35 -107 38 -115 3 -10 -2 -14 -19 -14
-23 0 -28 9 -56 103 -37 120 -38 127 -13 127 15 0 25 -20 50 -101z m-85 -16
c10 -54 20 -108 23 -120 8 -37 -17 -27 -63 25 l-43 47 2 -55 c2 -43 -1 -55
-14 -58 -12 -2 -19 14 -32 75 -29 137 -31 163 -14 163 8 0 33 -21 56 -47 l41
-48 -6 58 c-6 52 -5 57 13 57 17 0 22 -14 37 -97z m-274 -6 c0 -89 14 -125 44
-114 13 5 16 23 16 102 0 87 2 96 18 93 15 -3 17 -17 20 -105 2 -92 1 -104
-18 -123 -20 -20 -65 -26 -86 -12 -25 16 -34 55 -34 141 0 86 4 97 33 100 4 1
7 -36 7 -82z"/>
<path d="M1650 2370 c0 -13 7 -20 20 -20 13 0 20 7 20 20 0 13 -7 20 -20 20
-13 0 -20 -7 -20 -20z"/>
<path d="M873 2134 c-7 -18 11 -39 26 -30 17 11 13 46 -4 46 -9 0 -18 -7 -22
-16z"/>
<path d="M1070 1998 c-105 -55 -108 -208 -5 -269 19 -12 35 -23 35 -25 0 -2
-79 -62 -176 -134 -134 -100 -174 -135 -170 -148 3 -9 66 -184 139 -387 l134
-370 377 0 378 0 84 230 c46 127 110 299 140 384 l57 155 -29 23 c-16 13 -95
71 -176 130 -82 59 -148 111 -148 115 0 4 12 14 28 22 88 46 113 153 56 235
-19 27 -88 61 -124 61 -43 0 -106 -36 -128 -72 -21 -33 -22 -47 -22 -260 l0
-224 43 -30 c25 -18 54 -52 72 -85 26 -47 30 -64 30 -129 0 -57 -6 -85 -22
-115 -103 -193 -376 -193 -475 0 -11 22 -23 68 -26 102 -4 56 -1 70 28 129 24
49 44 74 81 101 l49 35 0 202 c0 256 -9 288 -95 327 -53 24 -82 24 -135 -3z"/>
<path d="M492 1816 c1 -10 8 -17 13 -17 15 1 12 24 -3 29 -9 3 -13 -2 -10 -12z"/>
<path d="M2375 1747 c-25 -19 -13 -50 17 -45 17 2 23 10 23 27 0 30 -14 36
-40 18z"/>
<path d="M2390 1550 c0 -21 7 -25 27 -12 9 6 7 11 -7 20 -17 11 -20 10 -20 -8z"/>
<path d="M334 1525 c-4 -9 -2 -21 4 -27 16 -16 47 -5 47 17 0 26 -42 34 -51
10z"/>
<path d="M583 718 c-18 -13 -37 -33 -44 -45 -27 -50 32 -59 86 -12 64 56 27
105 -42 57z"/>
<path d="M2090 650 c-13 -8 -13 -11 2 -27 14 -13 20 -15 30 -5 17 17 -11 45
-32 32z"/>
</g>
</svg>
